<?xml version="1.0" encoding="utf-8"?>
<!-- Generator: Adobe Illustrator 16.0.0, SVG Export Plug-In . SVG Version: 6.00 Build 0)  -->
<!DOCTYPE svg PUBLIC "-//W3C//DTD SVG 1.1//EN" "http://www.w3.org/Graphics/SVG/1.1/DTD/svg11.dtd">
<svg version="1.1" id="Layer_1" xmlns="http://www.w3.org/2000/svg" xmlns:xlink="http://www.w3.org/1999/xlink" x="0px" y="0px"
	 width="1439.928px" height="364.799px" viewBox="0 0 1439.928 364.799" enable-background="new 0 0 1439.928 364.799"
	 xml:space="preserve">
<g>
	<path fill="#F2F2F2" d="M54.511,20.203l76.341,190.457l73.159-190.457h54.473L128.86,323.187L-0.76,20.203H54.511z"/>
	<path fill="#F2F2F2" d="M301.82,314.041c-19.88,0-36.847-3.846-50.894-11.53c-14.053-7.686-24.792-18.351-32.207-32.006
		c-7.427-13.652-11.133-29.09-11.133-46.326c0-16.699,4.238-31.87,12.721-45.524c8.48-13.648,19.88-24.518,34.197-32.604
		c14.311-8.083,30.349-12.132,48.11-12.132c23.058,0,42.08,6.698,57.056,20.084c14.976,13.389,24.984,32.272,30.02,56.657
		l-129.225,43.737c9.542,14.316,23.589,21.474,42.149,21.474c6.89,0,13.449-1.193,19.68-3.578c6.229-2.386,12.26-5.569,18.093-9.543
		l20.279,33.001c-9.015,5.564-18.688,10.011-29.026,13.321C321.302,312.381,311.362,314.041,301.82,314.041z M251.323,221.793
		c0,2.127,0.128,4.375,0.396,6.76l88.271-31.41c-3.183-7.42-7.951-13.98-14.316-19.682c-6.358-5.696-15.242-8.55-26.636-8.55
		c-14.056,0-25.517,4.908-34.394,14.712C255.759,193.433,251.323,206.156,251.323,221.793z"/>
	<path fill="#F2F2F2" d="M457.597,141.475l3.181,30.221c5.827-11.395,14.447-20.476,25.845-27.238
		c11.394-6.756,24.916-10.138,40.559-10.138c15.638,0,28.688,4.708,39.163,14.116c10.471,9.413,15.837,21.538,16.104,36.381v124.851
		h-44.532V200.721c-0.537-8.48-2.98-15.307-7.357-20.477c-4.371-5.168-11.467-7.885-21.272-8.152
		c-13.787,0-25.116,5.901-33.995,17.695c-8.884,11.799-13.322,26.838-13.322,45.127v74.753h-44.531V141.475H457.597z"/>
	<path fill="#F2F2F2" d="M692.349,314.041c-15.905,0-30.088-3.715-42.544-11.133c-12.462-7.418-22.266-17.956-29.426-31.611
		c-7.157-13.649-10.735-29.754-10.735-48.307c0-18.822,3.838-34.857,11.532-48.115c7.683-13.251,18.154-23.391,31.412-30.418
		c13.252-7.021,28.362-10.538,45.328-10.538c12.189,0,23.79,2.325,34.792,6.963c10.997,4.64,19.68,10.933,26.044,18.886V-0.473
		h44.131v310.14h-44.532v-22.663c-8.219,7.952-17.829,14.45-28.828,19.479C718.521,311.52,706.128,314.041,692.349,314.041z
		 M706.662,276.269c12.984,0,23.92-3.184,32.801-9.545c8.881-6.362,15.174-15.24,18.888-26.638v-35.787
		c-3.178-10.338-9.479-18.818-18.888-25.447c-9.412-6.623-20.344-9.94-32.801-9.94c-9.542,0-18.226,2.325-26.044,6.96
		c-7.822,4.641-14.114,10.933-18.885,18.885c-4.771,7.951-7.157,17.098-7.157,27.435c0,10.08,2.386,19.225,7.157,27.436
		c4.771,8.222,11.063,14.712,18.885,19.482C688.436,273.883,697.12,276.269,706.662,276.269z"/>
	<polygon fill="#F2F2F2" points="1076.808,-0.033 920.642,364.127 848.129,196.008 874.255,134.89 922.624,251.626 1022.348,-0.033 
			"/>
	<path fill="#F2F2F2" d="M1117.602,314.041c-19.881,0-36.846-3.846-50.894-11.53c-14.052-7.686-24.791-18.351-32.206-32.006
		c-7.426-13.652-11.133-29.09-11.133-46.326c0-16.699,4.237-31.87,12.721-45.524c8.48-13.648,19.88-24.518,34.197-32.604
		c14.311-8.083,30.35-12.132,48.11-12.132c23.061,0,42.08,6.698,57.059,20.084c14.973,13.389,24.982,32.272,30.017,56.657
		l-129.225,43.737c9.546,14.316,23.592,21.474,42.149,21.474c6.89,0,13.449-1.193,19.683-3.578
		c6.225-2.386,12.257-5.569,18.089-9.543l20.278,33.001c-9.014,5.564-18.685,10.011-29.025,13.321
		C1137.085,312.381,1127.145,314.041,1117.602,314.041z M1067.104,221.793c0,2.127,0.13,4.375,0.397,6.76l88.271-31.41
		c-3.181-7.42-7.952-13.98-14.314-19.682c-6.361-5.696-15.242-8.55-26.639-8.55c-14.056,0-25.514,4.908-34.395,14.712
		C1071.544,193.433,1067.104,206.156,1067.104,221.793z"/>
	<path fill="#F2F2F2" d="M1278.647,141.475l3.181,38.967c4.771-9.541,11.264-17.822,19.486-24.852
		c8.211-7.021,16.629-12.386,25.246-16.102c8.611-3.708,15.707-5.569,21.273-5.569l-1.988,44.534
		c-12.723-1.055-23.792,1.193-33.201,6.761c-9.415,5.565-16.699,13.06-21.868,22.466c-5.17,9.412-7.752,19.283-7.752,29.62v72.367
		h-44.538V141.475H1278.647z"/>
	<path fill="#F2F2F2" d="M1388.236,81.438c0-6.891,2.717-12.587,8.149-17.101c5.433-4.505,11.336-6.759,17.695-6.759
		c6.094,0,11.795,2.254,17.098,6.759c5.302,4.514,7.954,10.21,7.954,17.101c0,6.896-2.652,12.522-7.954,16.896
		c-5.302,4.377-11.003,6.563-17.098,6.563c-6.359,0-12.262-2.186-17.695-6.563C1390.953,93.961,1388.236,88.334,1388.236,81.438z
		 M1390.227,141.475h44.533v168.192h-44.533V141.475z"/>
</g>
</svg>
